<?xml version="1.0" encoding="utf-8"?>
<!-- Generator: Adobe Illustrator 18.0.0, SVG Export Plug-In . SVG Version: 6.00 Build 0)  -->
<!DOCTYPE svg PUBLIC "-//W3C//DTD SVG 1.1//EN" "http://www.w3.org/Graphics/SVG/1.1/DTD/svg11.dtd">
<svg version="1.1" id="Layer_1" xmlns="http://www.w3.org/2000/svg" xmlns:xlink="http://www.w3.org/1999/xlink" x="0px" y="0px"
	 viewBox="0 0 512 512" enable-background="new 0 0 512 512" xml:space="preserve">
<g>
	<path d="M443.5,288.4v-64.7l-45.2-14.7c-2.3-7-5.1-13.7-8.4-20.2l21.6-42.4l-45.8-45.8l-42.4,21.6c-6.5-3.3-13.3-6.1-20.2-8.4
		l-14.7-45.2h-64.7l-14.7,45.2c-6.9,2.3-13.7,5.1-20.2,8.4l-42.4-21.6l-45.8,45.8l21.6,42.4c-3.3,6.5-6.1,13.3-8.4,20.2l-45.2,14.7
		v64.7l45.2,14.7c2.3,6.9,5.1,13.7,8.4,20.2l-21.6,42.4l45.8,45.8l42.4-21.6c6.5,3.3,13.3,6.1,20.2,8.4l14.7,45.2h64.7l14.7-45.2
		c7-2.3,13.7-5.1,20.2-8.4l42.4,21.6l45.8-45.8l-21.6-42.4c3.3-6.5,6.1-13.3,8.4-20.2L443.5,288.4z M367.5,273.7l-2.5,10
		c-2.7,10.5-6.8,20.5-12.3,29.7l-5.3,8.9l18.4,36.2l-7.3,7.3l-36.1-18.4l-8.9,5.3c-9.2,5.5-19.2,9.6-29.7,12.3l-10,2.5L261.1,406
		h-10.3l-12.6-38.6l-10-2.5c-10.5-2.7-20.5-6.8-29.7-12.3l-8.9-5.3l-36.1,18.4l-7.3-7.3l18.4-36.1l-5.3-8.9
		c-5.5-9.3-9.6-19.3-12.3-29.7l-2.5-10L106,261.1v-10.3l38.6-12.6l2.5-10c2.6-10.4,6.8-20.4,12.3-29.7l5.3-8.9l-18.4-36.1l7.3-7.3
		l36.1,18.4l8.9-5.3c9.3-5.5,19.3-9.7,29.7-12.3l10-2.5l12.6-38.6h10.3l12.6,38.6l10,2.5c10.4,2.7,20.4,6.8,29.7,12.3l8.9,5.3
		l36.1-18.4l7.3,7.3l-18.4,36.2l5.3,8.9c5.5,9.2,9.6,19.2,12.3,29.7l2.5,10l38.5,12.6v10.3L367.5,273.7z"/>
	<path d="M256,199.8c-31,0-56.3,25.2-56.3,56.3s25.2,56.3,56.3,56.3s56.3-25.2,56.3-56.3S287,199.8,256,199.8z M256,274.8
		c-10.3,0-18.8-8.4-18.8-18.8c0-10.3,8.4-18.8,18.8-18.8c10.3,0,18.8,8.4,18.8,18.8C274.8,266.3,266.3,274.8,256,274.8z"/>
</g>
</svg>
